<svg version="1.2" baseProfile="tiny-ps" xmlns="http://www.w3.org/2000/svg" viewBox="0 0 256 256" width="256" height="256">
	<title>&lt;Group&gt;</title>
	<defs>
		<linearGradient id="grd1" gradientUnits="userSpaceOnUse"  x1="31.7" y1="223.5" x2="31.7" y2="33">
			<stop offset="0" stop-color="#336cb9"  />
			<stop offset=".7" stop-color="#73d7e1"  />
			<stop offset=".8" stop-color="#ffffff"  />
			<stop offset="1" stop-color="#5ed1dc"  />
		</linearGradient>
		<linearGradient id="grd2" gradientUnits="userSpaceOnUse"  x1="84.6" y1="45.3" x2="226.2" y2="45.3">
			<stop offset="0" stop-color="#113682"  />
			<stop offset="1" stop-color="#188dcf"  />
		</linearGradient>
		<linearGradient id="grd3" gradientUnits="userSpaceOnUse"  x1="12.2" y1="39.9" x2="215.7" y2="39.9">
			<stop offset="0" stop-color="#336cb9"  />
			<stop offset=".7" stop-color="#73d7e1"  />
			<stop offset=".8" stop-color="#ffffff"  />
			<stop offset="1" stop-color="#5ed1dc"  />
		</linearGradient>
	</defs>
	<style>
		tspan { white-space:pre }
		.s0 { fill: url(#grd1) } 
		.s1 { opacity: .2;fill: #000044 } 
		.s2 { fill: url(#grd2) } 
		.s3 { fill: #021736 } 
		.s4 { fill: #1f78d4 } 
		.s5 { fill: url(#grd3) } 
	</style>
	<g id="&lt;Group&gt;">
		<g id="&lt;Group&gt;">
			<path id="&lt;Compound Path&gt;" fill-rule="evenodd" class="s0" d="m226.15 128.26c0 29.94-13.81 56.65-35.42 74.12c-0.53 0.43-1.06 0.85-1.61 1.27c-16.08 12.43-36.27 19.83-58.18 19.83c-52.59 0-95.22-42.63-95.22-95.22c0-52.59 42.63-95.22 95.22-95.22c22.65 0 43.45 7.9 59.79 21.11c0.82 0.66 1.63 1.34 2.41 2.03c20.22 17.47 33 43.27 33 72.09zm-95.21 46.41c25.63 0 46.4-20.78 46.4-46.41c0-25.63-20.77-46.41-46.4-46.41c-25.23 0-45.72 20.11-46.4 45.16c-0.02 0.42-0.02 0.84-0.02 1.26c0 0.43 0 0.85 0.02 1.29c0.68 25.03 21.17 45.12 46.4 45.12z" />
			<path id="&lt;Path&gt;" class="s1" d="m226.15 128.26c0 29.94-13.81 56.65-35.42 74.12c-0.53 0.43-1.06 0.85-1.61 1.27c-12.48 7.07-26.9 11.09-42.27 11.09c-47.51 0-86.03-38.52-86.03-86.05c0-47.51 38.52-86.03 86.03-86.03c17.05 0 32.94 4.96 46.3 13.51c20.22 17.47 33 43.27 33 72.09z" />
			<path id="&lt;Path&gt;" class="s2" d="m226.15 128.26c0 29.94-13.81 56.65-35.42 74.12c-1.29 0.48-2.61 0.92-3.93 1.34c-7.37 2.27-15.21 3.49-23.33 3.49c-2.22 0-4.41-0.1-6.57-0.27c-6.73-0.55-13.22-1.95-19.37-4.09c-30.47-10.59-52.45-39.34-53-73.3c0.68 25.03 21.17 45.12 46.4 45.12c0.55 0 1.09-0.02 1.63-0.05c24.87-0.84 44.77-21.28 44.77-46.36c0-20.56-13.36-37.99-31.88-44.08c-2.82-0.93-5.75-1.61-8.77-1.98c-1.88-0.23-3.8-0.35-5.75-0.35c-12.41 0-23.7 4.88-32.02 12.83c-8.58 8.18-14.04 19.61-14.38 32.33c0.19-12.57 3.33-24.42 8.76-34.92c9.21-17.85 25.05-31.73 44.27-38.39c6.15-2.16 12.64-3.54 19.37-4.09c2.16-0.18 4.33-0.27 6.54-0.27c9.58 0 18.75 1.71 27.25 4.81c6.17 4.97 11.69 10.71 16.44 17.05c11.91 15.91 18.98 35.66 18.98 57.07z" />
			<path id="&lt;Path&gt;" class="s1" d="m84.55 127.01c0.19-12.57 3.33-24.42 8.76-34.92c9.21-17.85 25.05-31.73 44.27-38.39c6.15-2.16 12.64-3.54 19.37-4.09c2.16-0.18 4.33-0.27 6.54-0.27c9.58 0 18.75 1.71 27.25 4.81c-21.5 3.5-39.51 12.85-54.04 28.06c-1.88-0.23-3.8-0.35-5.75-0.35c-12.41 0-23.7 4.88-32.02 12.83c-8.58 8.18-14.04 19.61-14.38 32.33z" />
			<path id="&lt;Path&gt;" class="s1" d="m186.81 203.72c-7.37 2.27-15.21 3.49-23.33 3.49c-2.22 0-4.41-0.1-6.57-0.27c-6.73-0.55-13.22-1.95-19.37-4.09c-30.47-10.59-52.45-39.34-53-73.3c0.68 25.03 21.17 45.12 46.4 45.12c0.55 0 1.09-0.02 1.63-0.05c15.94 19.33 40.39 28.85 54.24 29.09z" />
			<path id="&lt;Path&gt;" class="s3" d="m12.24 176.15c102.36-14.63 170.19-58.72 203.49-132.28c-22.78 83.02-90.61 127.12-203.49 132.28z" />
			<g id="&lt;Group&gt;">
				<path id="&lt;Path&gt;" class="s4" d="m215.72 43.86c-14.53 93.52-82.04 137.63-202.52 132.31c-0.43-0.01-0.75-0.02-0.97-0.03c103.2-0.49 171.03-44.59 203.48-132.28z" />
			</g>
			<path id="&lt;Path&gt;" class="s5" d="m215.72 43.86c-40.63 132.91-189.17 132.6-202.52 132.31c-0.43-0.01-0.75-0.02-0.97-0.03c103.2-0.49 171.03-44.59 203.48-132.28z" />
		</g>
	</g>
</svg>