<svg version="1.2" baseProfile="tiny-ps" xmlns="http://www.w3.org/2000/svg" viewBox="0 0 256 256" width="256" height="256">
	<title>&lt;Group&gt;</title>
	<defs>
		<linearGradient id="grd1" gradientUnits="userSpaceOnUse"  x1="28.3" y1="23.4" x2="221.5" y2="23.4">
			<stop offset="0" stop-color="#d7294d"  />
			<stop offset="1" stop-color="#ffc87c"  />
		</linearGradient>
		<linearGradient id="grd2" gradientUnits="userSpaceOnUse"  x1="48.4" y1="43.5" x2="227.3" y2="43.5">
			<stop offset="0" stop-color="#113682"  />
			<stop offset="1" stop-color="#188dcf"  />
		</linearGradient>
	</defs>
	<style>
		tspan { white-space:pre }
		.s0 { fill: url(#grd1) } 
		.s1 { opacity: .2;fill: #331a53 } 
		.s2 { fill: #ffe471 } 
		.s3 { fill: url(#grd2) } 
		.s4 { fill: #8fffff } 
		.s5 { fill: #021736 } 
	</style>
	<g id="&lt;Group&gt;">
		<g id="&lt;Group&gt;">
			<path id="&lt;Compound Path&gt;" fill-rule="evenodd" class="s0" d="m221.47 124.02c0 53.34-43.24 96.59-96.59 96.59c-53.35 0-96.6-43.25-96.6-96.59c0-53.35 43.25-96.6 96.6-96.6c53.35 0 96.59 43.25 96.59 96.6zm-39.24 0c0-31.67-25.67-57.36-57.35-57.36c-31.68 0-57.36 25.68-57.36 57.36c0 31.68 25.68 57.35 57.36 57.35c31.68 0 57.35-25.67 57.35-57.35z" />
			<path id="&lt;Compound Path&gt;" fill-rule="evenodd" class="s1" d="m124.88 214.78c-50.05 0-90.76-40.71-90.76-90.75c0-50.05 40.72-90.76 90.76-90.76c50.04 0 90.75 40.72 90.75 90.76c0 50.04-40.71 90.75-90.75 90.75zm0-153.95c-34.85 0-63.2 28.35-63.2 63.2c0 34.84 28.35 63.19 63.2 63.19c34.84 0 63.19-28.35 63.19-63.19c0-34.85-28.35-63.2-63.19-63.2z" />
			<g id="&lt;Group&gt;" style="opacity: .3">
				<path id="&lt;Compound Path&gt;" fill-rule="evenodd" class="s2" d="m124.87 209.44c-47.1 0-85.42-38.32-85.42-85.42c0-47.1 38.32-85.42 85.42-85.42c47.1 0 85.42 38.32 85.42 85.42c0 47.1-38.32 85.42-85.42 85.42zm0-162.55c-42.53 0-77.13 34.6-77.13 77.13c0 42.53 34.6 77.13 77.13 77.13c42.53 0 77.13-34.6 77.13-77.13c0-42.53-34.6-77.13-77.13-77.13z" />
			</g>
			<path id="&lt;Path&gt;" class="s3" d="m227.31 124.02c0 56.49-45.94 102.43-102.43 102.43c-27.31 0-52.99-10.62-72.33-29.9l-4.14-4.13l12.2-12.2l5.88-5.87l17.93-17.93l4.13 4.11c9.71 9.66 22.62 15 36.33 15c28.41 0 51.51-23.11 51.51-51.51c0-13.72-5.34-26.64-15-36.33l-4.11-4.13l17.93-17.93l5.87-5.88l12.2-12.2l4.13 4.14c19.28 19.33 29.9 45.02 29.9 72.33z" />
			<path id="&lt;Compound Path&gt;" class="s1" d="m221.47 124.02c0 53.34-43.24 96.59-96.59 96.59c-26.62 0-50.74-10.77-68.21-28.19l27.75-27.75c10.37 10.32 24.68 16.7 40.46 16.7c31.68 0 57.35-25.67 57.35-57.35c0-15.79-6.38-30.1-16.7-40.46l27.75-27.75c17.43 17.46 28.19 41.58 28.19 68.21z" />
			<g id="&lt;Group&gt;" style="opacity: .5">
				<path id="&lt;Compound Path&gt;" class="s4" d="m210.29 124.02c0 47.09-38.32 85.41-85.41 85.41c-25.59 0-48.6-11.32-64.28-29.2l5.88-5.87c14.15 16.39 35.07 26.78 58.39 26.78c42.53 0 77.12-34.59 77.12-77.12c0-23.32-10.39-44.24-26.78-58.39l5.87-5.88c17.88 15.68 29.2 38.69 29.2 64.28z" />
			</g>
			<path id="&lt;Path&gt;" class="s5" d="m213.4 27.42l-181.57 181.57c34.2-58.25 94.72-118.77 181.57-181.57z" />
			<path id="&lt;Path&gt;" class="s4" d="m31.83 209c38.24-63.1 98.77-123.63 181.57-181.57c-92.8 53.79-153.32 114.31-181.57 181.57z" />
		</g>
	</g>
</svg>