<svg version="1.2" baseProfile="tiny-ps" xmlns="http://www.w3.org/2000/svg" viewBox="0 0 256 256" width="256" height="256">
	<title>&lt;Group&gt;</title>
	<defs>
		<linearGradient id="grd1" gradientUnits="userSpaceOnUse"  x1="104.7" y1="162.4" x2="104.7" y2="120.7">
			<stop offset="0" stop-color="#879494"  />
			<stop offset="1" stop-color="#ffffff"  />
		</linearGradient>
		<linearGradient id="grd2" gradientUnits="userSpaceOnUse"  x1="22.9" y1="232.3" x2="22.9" y2="29.7">
			<stop offset="0" stop-color="#572790"  />
			<stop offset=".8" stop-color="#fc69b1"  />
			<stop offset="1" stop-color="#572790"  />
		</linearGradient>
		<linearGradient id="grd3" gradientUnits="userSpaceOnUse"  x1="13.6" y1="214.1" x2="28.1" y2="54.6">
			<stop offset="0" stop-color="#8b1b4d"  />
			<stop offset=".5" stop-color="#ffa77b"  />
			<stop offset="1" stop-color="#7f184c"  />
		</linearGradient>
	</defs>
	<style>
		tspan { white-space:pre }
		.s0 { fill: none;stroke: #ffffff;stroke-width: 3.5 } 
		.s1 { fill: url(#grd1) } 
		.s2 { fill: url(#grd2) } 
		.s3 { opacity: .1;fill: #ffffff } 
		.s4 { opacity: .2;fill: #ffffff } 
		.s5 { fill: url(#grd3) } 
		.s6 { opacity: .2;fill: #4c0808 } 
		.s7 { opacity: .2;fill: #000044 } 
	</style>
	<g id="nomics">
		<g id="&lt;Group&gt;">
			<g id="&lt;Group&gt;">
				<path id="&lt;Path&gt;" class="s0" d="m161.57 135.53c0 17.64-14.3 31.94-31.94 31.94c-17.64 0-31.94-14.3-31.94-31.94c0-17.64 14.3-31.94 31.94-31.94c17.64 0 31.94 14.3 31.94 31.94z" />
				<path id="&lt;Path&gt;" class="s1" d="m150.52 135.53c0 11.54-9.35 20.89-20.89 20.89c-11.54 0-20.89-9.35-20.89-20.89c0-11.54 9.35-20.89 20.89-20.89c11.54 0 20.89 9.35 20.89 20.89z" />
			</g>
			<g id="&lt;Group&gt;">
				<path id="&lt;Compound Path&gt;" fill-rule="evenodd" class="s2" d="m229.48 126.72c0 32.72-15.49 61.79-39.55 80.29c-17.1 13.19-38.51 21.01-61.75 21.01c-21.34 0-41.1-6.59-57.42-17.85c-0.04-0.02-0.09-0.05-0.12-0.07c-0.18-0.12-0.35-0.23-0.53-0.35c-0.11-0.09-0.23-0.16-0.33-0.23c-0.01-0.01-0.02-0.02-0.04-0.04c-0.79-0.56-1.58-1.14-2.36-1.73c-2.41-1.81-4.74-3.72-6.96-5.74c-0.74-0.67-1.48-1.36-2.2-2.04c-0.72-0.69-1.44-1.39-2.15-2.11c-0.7-0.7-1.39-1.44-2.08-2.17c-0.69-0.74-1.36-1.48-2.01-2.24c-0.65-0.72-1.27-1.46-1.88-2.22c-0.04-0.02-0.05-0.05-0.07-0.07c0-0.01 0-0.02 0-0.02c-2.73-3.27-5.23-6.73-7.5-10.34c-0.3-0.48-0.6-0.95-0.9-1.44c-0.32-0.53-0.63-1.06-0.95-1.58c-0.35-0.6-0.7-1.21-1.04-1.83c-0.67-1.2-1.32-2.39-1.92-3.63c-0.39-0.72-0.74-1.46-1.09-2.2c-0.39-0.85-0.77-1.69-1.16-2.54c-0.86-1.97-1.67-3.98-2.43-6.02c-0.26-0.76-0.55-1.51-0.79-2.29c-0.3-0.86-0.58-1.74-0.86-2.62c-0.35-1.13-0.67-2.25-0.99-3.4c-0.21-0.83-0.42-1.66-0.63-2.5c-0.21-0.88-0.42-1.76-0.62-2.66c-0.04-0.16-0.07-0.32-0.11-0.49c-0.18-0.88-0.35-1.78-0.51-2.68c-0.02-0.09-0.04-0.18-0.05-0.26c-0.16-0.9-0.32-1.8-0.44-2.71c-0.16-0.99-0.3-1.99-0.41-2.99c-0.11-0.76-0.18-1.53-0.25-2.31c-0.04-0.28-0.07-0.56-0.09-0.85c-0.07-0.74-0.12-1.5-0.18-2.25c-0.04-0.62-0.07-1.23-0.11-1.85c-0.04-0.62-0.05-1.25-0.07-1.88c-0.04-1.04-0.05-2.06-0.05-3.1c0-14.67 3.12-28.61 8.73-41.2c0.02-0.02 0.02-0.02 0.02-0.04c0.02-0.02 0.02-0.04 0.04-0.05c0.02-0.04 0.04-0.07 0.07-0.12c15.79-35.29 51.24-59.87 92.42-59.87c8.73 0 17.22 1.11 25.32 3.2c7.92 2.02 15.48 4.98 22.52 8.79c8.26 4.42 15.83 9.97 22.52 16.43c3.57 3.43 6.88 7.13 9.9 11.06c1.62 2.08 3.15 4.23 4.6 6.44c0.02 0.02 0.02 0.04 0.04 0.05c3.33 5.11 6.22 10.55 8.59 16.23c5.04 12.03 7.82 25.23 7.82 39.07zm-49.2 7.34c0-20.74-7.85-39.65-20.76-53.92c-3.79-4.21-8.03-8.01-12.62-11.32c-5.81-4.21-12.2-7.66-19.03-10.19c-26.34 9.79-46.17 33-51.15 61.29c-0.58 3.12-0.95 6.3-1.13 9.54c-0.11 1.51-0.14 3.05-0.14 4.6c0 34.58 21.8 64.07 52.42 75.45c30.6-11.37 52.42-40.87 52.42-75.45z" />
				<path id="&lt;Path&gt;" class="s3" d="m176.03 37.43c-25.65 4.7-60.61 16.38-100.58 43.76c-56.02 38.37-59.42 35.12-10.21-9.77c22.69-20.86 52.11-35.12 88.27-42.77c7.92 2.02 15.48 4.98 22.52 8.79z" />
				<path id="&lt;Compound Path&gt;" fill-rule="evenodd" class="s4" d="m176.38 166.55c-18.22 40.81-62.44 60.32-106.53 42.96c-0.04-0.02-0.07-0.04-0.11-0.04c-0.79-0.56-1.58-1.14-2.36-1.73c-2.41-1.81-4.74-3.72-6.96-5.74c-0.74-0.67-1.48-1.36-2.2-2.04c-0.72-0.69-1.44-1.39-2.15-2.11c-0.7-0.7-1.39-1.44-2.08-2.17c-0.69-0.74-1.36-1.48-2.01-2.24c-0.65-0.72-1.27-1.46-1.88-2.22c-0.04-0.02-0.05-0.05-0.07-0.07c-0.01 0-0.01-0.01 0-0.02c-13.92-23.89-18.72-59.1-14.4-105.63c0.02-0.02 0.02-0.02 0.02-0.04c0.02-0.02 0.02-0.04 0.04-0.05c0.02-0.04 0.04-0.07 0.07-0.12c2.01-3.22 27.5-42.19 82.44-31.71c57.31 10.93 76.42 72.14 58.18 112.95zm3.91-32.49c0-34.56-21.82-64.06-52.42-75.43c-30.62 11.37-52.42 40.87-52.42 75.43c0 34.58 21.8 64.07 52.42 75.45c30.6-11.37 52.42-40.87 52.42-75.45z" />
				<path id="&lt;Path&gt;" class="s5" d="m127.87 209.51c-8.75 3.26-18.19 5.04-28.07 5.04c-11.53 0-22.5-2.43-32.42-6.8c0 0-0.01-0.01-0.02-0.02c-2.41-1.81-4.72-3.7-6.94-5.72c-0.74-0.67-1.48-1.36-2.2-2.04c-0.72-0.69-1.44-1.39-2.15-2.11c-0.7-0.7-1.39-1.44-2.08-2.17c-0.69-0.74-1.36-1.48-2.01-2.24c-0.65-0.72-1.27-1.46-1.88-2.22c-0.04-0.02-0.05-0.05-0.07-0.07c0-0.01 0-0.02 0-0.02c-2.73-3.27-5.23-6.73-7.5-10.34c-0.3-0.48-0.6-0.95-0.9-1.44c-0.32-0.53-0.63-1.06-0.95-1.58c-0.35-0.6-0.7-1.21-1.04-1.83c-0.67-1.2-1.32-2.39-1.92-3.63c-0.39-0.72-0.74-1.46-1.09-2.2c-0.39-0.85-0.77-1.69-1.16-2.54c-0.86-1.97-1.67-3.98-2.43-6.02c-0.26-0.76-0.55-1.51-0.79-2.29c-0.3-0.86-0.58-1.74-0.86-2.62c-0.35-1.13-0.67-2.25-0.99-3.4c-0.21-0.83-0.42-1.66-0.63-2.5c-0.21-0.88-0.42-1.76-0.62-2.66c-0.04-0.16-0.07-0.32-0.11-0.49c-0.18-0.88-0.35-1.78-0.51-2.68c-0.02-0.09-0.04-0.18-0.05-0.26c-0.16-0.9-0.32-1.8-0.44-2.71c-0.16-0.99-0.3-1.99-0.41-2.99c-0.11-0.76-0.18-1.53-0.25-2.31c-0.04-0.28-0.07-0.56-0.09-0.85c-0.07-0.74-0.12-1.5-0.18-2.25c-0.04-0.62-0.07-1.23-0.11-1.85c-0.04-0.62-0.05-1.25-0.07-1.88c-0.04-1.04-0.05-2.06-0.05-3.1c0-14.67 3.12-28.61 8.73-41.2c0.02-0.02 0.02-0.02 0.02-0.04c14.7-19.37 37.96-31.89 64.15-31.89c9.88 0 19.32 1.78 28.07 5.04c-30.62 11.37-52.42 40.87-52.42 75.43c0 34.58 21.8 64.07 52.42 75.45z" />
				<path id="&lt;Path&gt;" class="s6" d="m48.51 115.33c-15.65 52.51 18 91.42 18.86 92.41c-2.41-1.81-4.72-3.7-6.94-5.72c-0.74-0.67-1.48-1.36-2.2-2.04c-0.72-0.69-1.44-1.39-2.15-2.11c-0.7-0.7-1.39-1.44-2.08-2.17c-0.69-0.74-1.36-1.48-2.01-2.24c-0.65-0.72-1.27-1.46-1.88-2.22c-0.04-0.02-0.05-0.05-0.07-0.07c0-0.01 0-0.02 0-0.02c-2.73-3.27-5.23-6.73-7.5-10.34c-0.3-0.48-0.6-0.95-0.9-1.44c-0.32-0.53-0.63-1.06-0.95-1.58c-0.35-0.6-0.7-1.21-1.04-1.83c-0.67-1.2-1.32-2.39-1.92-3.63c-0.39-0.72-0.74-1.46-1.09-2.2c-0.39-0.85-0.77-1.69-1.16-2.54c-0.86-1.97-1.67-3.98-2.43-6.02c-0.26-0.76-0.55-1.51-0.79-2.29c-0.3-0.86-0.58-1.74-0.86-2.62c-0.35-1.13-0.67-2.25-0.99-3.4c-0.21-0.83-0.42-1.66-0.63-2.5c-0.21-0.88-0.42-1.76-0.62-2.66c-0.04-0.16-0.07-0.32-0.11-0.49c-0.18-0.88-0.35-1.78-0.51-2.68c-0.02-0.09-0.04-0.18-0.05-0.26c-0.16-0.9-0.32-1.8-0.44-2.71c-0.16-0.99-0.3-1.99-0.41-2.99c-0.11-0.76-0.18-1.53-0.25-2.31c-0.04-0.28-0.07-0.56-0.09-0.85c-0.07-0.74-0.12-1.5-0.18-2.25c-0.04-0.62-0.07-1.23-0.11-1.85c-0.04-0.62-0.05-1.25-0.07-1.88c-0.04-1.04-0.05-2.06-0.05-3.1c0-14.67 3.12-28.61 8.73-41.2c0.02-0.02 0.02-0.02 0.02-0.04c14.7-19.37 37.96-31.89 64.15-31.89c9.88 0 19.32 1.78 28.07 5.04c-42.34 2.34-68.79 21.23-79.36 56.7z" />
				<path id="&lt;Path&gt;" class="s7" d="m229.48 126.72c0 32.72-15.49 61.79-39.55 80.29c-17.1 13.19-38.51 21.01-61.75 21.01c-21.34 0-41.1-6.59-57.42-17.85c5.9 3.75 37.06 20.64 92.63-0.65c62.03-23.77 68.85-96.83 49.72-137.97c-0.02-0.04-0.04-0.09-0.05-0.12c3.33 5.11 6.22 10.55 8.59 16.23c5.04 12.03 7.82 25.23 7.82 39.07z" />
				<path id="&lt;Path&gt;" class="s3" d="m76.72 119.92c-0.58 3.12-0.95 6.3-1.13 9.54c-11.96 6.15-7.11-0.74 1.13-9.54z" />
				<path id="&lt;Path&gt;" class="s3" d="m208.44 64.92c-13.86 2.59-30.37 7.22-48.91 15.23c-3.79-4.21-8.03-8.01-12.62-11.32c14.54-6.37 31.96-12.08 51.64-14.97c3.57 3.43 6.88 7.13 9.9 11.06z" />
			</g>
		</g>
	</g>
</svg>